<?xml version="1.0" encoding="UTF-8"?>
<!DOCTYPE svg PUBLIC "-//W3C//DTD SVG 1.1//EN" "http://www.w3.org/Graphics/SVG/1.1/DTD/svg11.dtd">
<svg xmlns="http://www.w3.org/2000/svg" version="1.1" width="96px" height="86px" style="shape-rendering:geometricPrecision; text-rendering:geometricPrecision; image-rendering:optimizeQuality; fill-rule:evenodd; clip-rule:evenodd" xmlns:xlink="http://www.w3.org/1999/xlink">
<g><path style="opacity:1" fill="#0088cc" d="M 3.5,-0.5 C 5.83333,-0.5 8.16667,-0.5 10.5,-0.5C 19.9173,3.98878 28.084,10.3221 35,18.5C 39.3914,24.0498 43.5581,29.7164 47.5,35.5C 54.2256,25.6024 61.8922,16.4357 70.5,8C 74.8322,4.47719 79.4989,1.64385 84.5,-0.5C 86.8333,-0.5 89.1667,-0.5 91.5,-0.5C 93.1667,0.5 94.5,1.83333 95.5,3.5C 95.5,10.1667 95.5,16.8333 95.5,23.5C 96.0259,38.276 89.0259,47.1093 74.5,50C 84.1823,52.2977 88.0157,58.131 86,67.5C 81.736,76.6076 74.9026,82.6076 65.5,85.5C 64.1667,85.5 62.8333,85.5 61.5,85.5C 58.6337,84.1526 56.1337,82.1526 54,79.5C 51.339,74.3463 49.1723,69.0129 47.5,63.5C 45.3192,72.554 40.6525,79.8874 33.5,85.5C 31.1667,85.5 28.8333,85.5 26.5,85.5C 18.5493,81.0475 12.3826,74.7142 8,66.5C 5.86409,56.9542 9.69743,51.4542 19.5,50C 5.99768,46.8169 -0.668987,38.3169 -0.5,24.5C -0.5,17.5 -0.5,10.5 -0.5,3.5C 0.5,1.83333 1.83333,0.5 3.5,-0.5 Z"/></g>
</svg>
